<?xml version="1.0" encoding="UTF-8"?>
<svg width="200" height="200" version="1.1" viewBox="0 0 52.917 52.917" xmlns="http://www.w3.org/2000/svg">
 <g transform="translate(0 -244.08)" fill="#000000">
  <path transform="matrix(.26458 0 0 .26458 0 244.08)" d="m103.12 22.525c-11.144 0.07899-22.29 2.5268-32.566 7.4082-19.072 9.0596-33.68 25.415-40.559 45.41-1.0675 3.1033-2.7641 9.8472-2.5352 10.076 0.10318 0.10318 0.65538-0.25042 1.2285-0.78711 0.57312-0.53642 1.5668-1.3631 2.207-1.8359 1.052-0.77684 1.3059-1.3015 2.6582-5.4453 8.763-26.852 32.719-46.699 60.709-50.297 4.5831-0.58908 13.132-0.66884 17.699-0.16602 10.338 1.1388 21.832 5.1024 30.641 10.568 11.665 7.2384 21.495 18.108 27.564 30.479 2.7504 5.6057 6.2852 16.016 6.2852 18.51 0 1.4058 0.45154 1.2034 0.8789-0.39453 0.20191-0.75477 0.75565-1.9449 1.2305-2.6445 0.83234-1.2266 0.84941-1.3361 0.46485-3.0566-1.3444-6.0146-6.196-16.839-10.254-22.883-6.1299-9.1291-13.118-16.106-22.111-22.074-13.007-8.6321-28.27-12.975-43.541-12.867zm84.133 20.17c-2.124 0.03024-4.6736 0.7626-7.7402 2.1973-5.3752 2.5147-8.2208 6.4858-7.6816 10.717 0.33143 2.6013 0.42346 2.6456 4.5977 2.252 1.9918-0.18784 3.7018-0.42242 3.8008-0.52148 0.40897-0.40902-0.70251-1.1445-2.0312-1.3438-0.78275-0.11754-1.4238-0.34512-1.4238-0.50586 0-0.54542 4.7479-3.3947 7.1309-4.2793 1.3046-0.48427 3.338-0.96107 4.5176-1.0605 1.9977-0.16894 2.2008-0.12334 2.9785 0.6543 1.7326 1.7326 1.1269 3.5386-3.6426 10.85-5.368 8.2285-7.447 13.007-6.9023 15.865 0.3126 1.6404 1.282 3.3249 2.4336 4.2324 2.1058 1.6596 3.833 0.79187 2.9277-1.4707-0.61652-1.5408-0.31443-2.5043 3.2031-10.252 1.4076-3.1003 3.1506-7.376 3.875-9.502 1.1366-3.3354 1.3353-4.335 1.4512-7.2891 0.17579-4.4788-0.40404-6.6365-2.2988-8.5312-1.3714-1.3714-3.0713-2.042-5.1953-2.0117zm-70.129 27.984c-0.34053 3e-3 -0.83637 0.11464-1.5508 0.31836-1.7929 0.51126-1.942 0.7171-2.582 3.5723-0.33362 1.4882-0.90425 3.4684-1.2676 4.4004-0.36329 0.93199-0.66015 1.9289-0.66015 2.2148 0 0.41269 0.21334 0.47881 1.0273 0.31641 0.56414-0.11263 1.2919-0.44817 1.6191-0.74414 1.3968-1.2641 4.1191-7.272 4.1191-9.0918 0-0.69165-0.13752-0.99143-0.70508-0.98633zm47.338 1.9258c-1.9522 0-7.2495 7.3473-11.748 16.295-1.5442 3.0712-2.8688 5.5218-2.9434 5.4473-0.51212-0.51205 0.0757-3.4165 1.2539-6.1992 1.6062-3.7933 2.8809-7.4023 2.8809-8.1562 0-0.6898-0.63794-0.94457-2.3613-0.94336-3.4634 0.0031-5.5418 3.4076-7.1289 11.676-0.70766 3.6867-0.77397 3.8451-2.5801 6.2031-5.2718 6.8828-9.9325 8.5774-12.779 4.6484-0.31302-0.43181-0.65702-1.1605-0.76562-1.6191-0.17787-0.75095 0.0197-0.97389 1.998-2.2539 2.8258-1.8286 6.7471-5.6909 8.4277-8.3008 1.9557-3.0371 2.7145-5.2911 2.5527-7.584-0.1869-2.6501-0.91099-3.2223-3.8066-3.0156-5.2731 0.37606-10.452 4.7561-13.656 11.549-1.4411 3.0552-2.1113 5.6908-2.1113 8.293 0 1.9788-0.0707 2.1605-1.627 4.2598-4.1389 5.583-8.4092 8.045-11.258 6.4883-1.1092-0.60612-2.5626-2.6506-2.5723-3.6211-3e-3 -0.27212 0.97406-1.133 2.1699-1.9121 2.775-1.8078 6.7012-5.704 8.4004-8.3359 2.8435-4.4044 3.4263-8.2996 1.4902-9.9648-0.81237-0.69876-1.1334-0.77107-2.7871-0.62109-3.6509 0.33071-8.0596 3.0986-10.791 6.7734-1.6782 2.258-4.0275 7.0421-4.5684 9.3027-0.19889 0.83142-0.36133 2.4026-0.36133 3.4922 0 1.9564-0.02796 2.0191-2.25 4.9316-1.2379 1.6222-2.7494 3.5225-3.3574 4.2227l-1.1055 1.2715-1.4375-1.3262c-0.79132-0.72949-2.0348-1.702-2.7637-2.1621-0.72886-0.46023-1.3262-1.0215-1.3262-1.248 0-0.81634 2.2383-8.2133 3.8691-12.787 4.3364-12.162 5.1464-16.268 4.1445-21.002-0.801-3.7845-2.0927-4.5337-3.7852-2.1973-1.9101 2.6368-3.6644 9.191-6.2559 23.361-0.25916 1.4174-0.94279 4.3557-1.5195 6.5293l-1.0488 3.9512-1.3789 0.34766c-1.7874 0.44995-2.4722 1.1208-3.6562 3.582-1.9826 4.1209-5.393 7.3508-7.2656 6.8809-1.7587-0.44156-1.8175-2.9572-0.19727-8.4785 1.5284-5.2082 1.5267-4.955 0.03906-6.6738-0.718-0.82949-1.3066-1.5851-1.3066-1.6816 0-0.0964 0.36374-0.60839 0.80664-1.1348 0.44293-0.52634 0.80469-1.2426 0.80469-1.5918 0-0.76399-1.2576-1.9888-2.6191-2.5527-0.89833-0.37228-1.1752-0.31794-2.9707 0.56836-5.5169 2.7251-11.843 8.6168-15.146 14.105-0.63973 1.0629-1.2433 1.8905-1.3418 1.8398-0.09849-0.0506-0.98574 1.0366-1.9707 2.416-9.8139 13.744-20.119 21.104-25.939 18.529-4.7861-2.1171-5.7029-9.9466-2.3418-19.992 2.7512-8.2225 9.8169-19.172 16.477-25.531 3.0009-2.8657 4.307-3.4938 5.2656-2.5352 0.34745 0.34771 0.63086 1.0397 0.63086 1.5391 0 2.2925-2.3522 7.754-5.3086 12.324-1.4474 2.2375-1.5534 2.3292-2 1.7324-0.45522-0.60839-0.51046-0.58605-1.6172 0.6582-2.1672 2.4366-4.9895 6.4242-6.084 8.5977-1.6588 3.2939-1.4221 5.3062 0.80273 6.832 0.63884 0.43831 1.5307 0.8861 1.9824 0.99609 2.7024 0.65855 10.181-8.2883 14.807-17.715 2.5901-5.2778 3.6043-8.8117 3.6562-12.75 0.03742-2.8382-0.03655-3.2355-0.92383-4.957-1.1724-2.2754-2.4421-3.0684-4.9121-3.0684-3.6208 0-8.2682 2.7436-13.889 8.2012-9.4722 9.1976-17.138 21.267-19.686 30.992-2.9392 11.221 0.030247 20.006 7.7246 22.848 1.9869 0.73341 6.3667 0.73057 8.8457-4e-3 6.8032-2.0198 13.922-8.2929 20.324-17.91l2.2051-3.3125 0.46484 1.416c0.56864 1.7339 2.2216 4.2899 3.6543 5.6523 1.4855 1.4125 3.4602 2.6895 4.1602 2.6895 1.4979 0 3.9636-3.106 7.4336-9.3691l2.0352-3.6758 0.16016 3.8652c0.18289 4.3902 0.64768 5.5805 2.5156 6.4668 3.0338 1.4397 5.695-1.0186 9.8535-9.0977l1.5195-2.9512 1.2891 1.3984c1.2474 1.3533 1.2783 1.4373 0.94531 2.6738-1.2201 4.5311-1.619 12.213-0.82812 15.945 0.61779 2.9156 2.4541 6.6629 3.877 7.9121 1.5558 1.3661 2.439 1.29 4.2324-0.36328 5.5709-5.135 9.3551-16.57 7.7461-23.406l-0.48633-2.0644 1.6113-2.1016c0.88565-1.1555 2.0551-2.8906 2.5996-3.8555l0.98828-1.7539 0.90039 1.7774c1.1917 2.3567 3.1139 3.9796 5.2344 4.418 4.57 0.94495 9.9055-2.6504 14.084-9.4883 0.922-1.5088 1.7344-2.7441 1.8047-2.7441 0.0702 0 0.32638 0.47302 0.56836 1.0488 0.81874 1.9479 2.338 3.6847 3.873 4.4277 2.1765 1.0535 5.1197 0.80897 7.8613-0.65235 2.6072-1.3896 5.7897-4.8014 8.0566-8.6367 0.95907-1.6226 1.7834-2.9512 1.8301-2.9512 0.0466 0 0.45216 0.80586 0.90235 1.7891 1.4969 3.2696 3.2488 4.9541 4.6797 4.5 0.73391-0.23319 2.006-2.6276 4.3652-8.2207 1.9467-4.615 5.3281-11.377 5.5684-11.137 0.079 0.07937-0.16211 1.0608-0.53516 2.1816-2.9156 8.7615-1.8116 15.396 2.5625 15.396 2.6856 0 4.9575-2.753 9.3164-11.297 2.5796-5.0561 2.607-5.1399 2.2246-6.416-0.21298-0.71093-0.4835-1.291-0.60156-1.291-0.11808 0-1.0677 1.3795-2.1113 3.0664-3.6107 5.8366-5.475 7.6548-6.7559 6.5918-1.1354-0.94231-0.22637-6.3175 1.8789-11.109 1.4956-3.4041 1.6918-4.5718 1.0332-6.1484-0.64992-1.5558-2.0225-3.0312-2.8203-3.0312zm-28.506 10.439c0.11951 0.0076 0.21839 0.04828 0.29493 0.125 0.59889 0.59887 0.35352 2.2249-0.60352 3.9883-0.49909 0.9196-2.4089 3.2397-4.2441 5.1562-3.0924 3.2298-3.9121 3.9027-3.9121 3.2188 0-0.66826 1.6859-5.1206 2.4004-6.3398 1.8974-3.2377 4.909-6.2242 6.0644-6.1484zm44.674 0.91602c-0.20613 0.0076-0.3287 0.15264-0.53711 0.4375-0.75681 1.0349-1.707 4.628-1.707 6.457 0 2.1493 0.60148 3.3817 2.1777 4.4609 2.8904 1.979 4.4258 0.22389 4.4258-5.0566 0-3.1155-2e-3 -3.1246-1.0977-4.2559-0.60391-0.62347-1.6064-1.3747-2.2285-1.6699-0.53711-0.25436-0.8271-0.38159-1.0332-0.37305zm-66.754 5.3945c1.1127 0 0.98937 1.9546-0.25977 4.1328-0.54159 0.94443-2.5799 3.3358-4.5293 5.3145l-3.543 3.5996 0.20898-1.2891c0.73022-4.4918 5.75-11.758 8.123-11.758zm63.705 5.834-0.0273 6.0215c-0.0516 11.062-2.021 19.852-6.8672 30.664-7.5499 16.845-22.507 30.783-40.617 37.848-4.14 1.615-11.86 3.5382-16.699 4.1602-4.5832 0.58912-13.132 0.66888-17.699 0.16602-14.002-1.5424-28.199-7.5983-39.045-16.658-6.1167-5.1093-12.279-12.288-16.117-18.771-0.93747-1.5838-1.7887-2.8725-1.8926-2.8652-0.10386 8e-3 -0.81313 0.57743-1.5762 1.2676l-1.3867 1.2559 1.7988 2.9531c12.981 21.307 35.584 35.09 60.727 37.031 15.385 1.1875 32.123-2.7882 45.666-10.848 10.503-6.25 20.363-16.102 26.75-26.727 6.906-11.488 10.985-26.004 11.006-39.164l6e-3 -3.4531-1.0469-0.52734c-0.57577-0.29027-1.4822-0.93926-2.0137-1.4414zm-147.85 2.7578-1.8516 2.7871c-1.6449 2.4753-1.8516 2.9711-1.8516 4.4219v1.6328l1.9492-2.5859c1.9124-2.538 1.9466-2.6202 1.8516-4.4199zm36.402 6.6309v4e-3c0.01814-2e-3 0.03101 2e-3 0.03906 8e-3 0.24733 0.24718-2.1995 5.9223-4.125 9.5664-2.1595 4.087-4.8306 8.0739-6.2324 9.3047-1.3408 1.1772-1.4832 1.2003-2.2246 0.38086-1.3081-1.4453-1.2378-4.4125 0.17187-7.1758 0.36446-0.71441 1.9192-2.6024 3.4551-4.1973 3.0561-3.1736 8.3466-7.8438 8.916-7.8906zm-33.861 15.426c-0.13996-6.5e-4 -0.57316 0.16844-1.0449 0.41211-0.53915 0.27892-1.3491 0.50781-1.8008 0.50781-0.45173 0-0.82227 0.053-0.82227 0.11914 0 0.26343 2.5179 7.5769 2.7227 7.9082 0.23837 0.38555 0.59692 0.18652 2.3457-1.2969l0.98828-0.83985-1.1211-3.3457c-0.61667-1.841-1.1684-3.3949-1.2266-3.4531-0.0076-8e-3 -0.02072-8e-3 -0.04102-8e-3zm53.201 0.75781 2.2461 0.11328c1.236 0.0616 2.2776 0.13981 2.3145 0.17383 0.03704 0.034 0.29136 0.92023 0.56445 1.9688 1.0473 4.0209 0.2279 10.452-1.6797 13.18-0.48582 0.69452-1.0541 1.3202-1.2617 1.3887-0.53565 0.17612-2.2416-3.5797-2.6562-5.8496-0.45331-2.4818-0.42098-6.2467 0.07617-8.8809z" stroke-width=".32211"/>
  <g stroke-width=".25">
   <path transform="matrix(.26458 0 0 .26458 0 244.08)" d="m84.043 143.99c-1.3386-1.1458-3.3737-5.2065-3.939-7.8597-0.5006-2.3493-0.33368-10.291 0.28086-13.363 0.82362-4.1176 0.84369-3.9296-0.57897-5.421-0.69451-0.72805-1.3088-1.2687-1.365-1.2014-0.05625 0.0673-0.80485 1.4724-1.6636 3.1224-2.9843 5.7343-5.3262 8.6752-7.1862 9.0241-1.9821 0.37184-3.7753-0.68027-4.3267-2.5386-0.16085-0.54206-0.3566-2.5324-0.43499-4.4231-0.07839-1.8906-0.21754-3.4375-0.30922-3.4375s-0.93257 1.3781-1.8686 3.0625c-3.1176 5.6099-5.4148 8.7972-6.8903 9.5602-0.57389 0.29677-0.78425 0.28191-1.6438-0.11614-2.7538-1.2753-6.2489-5.5609-6.9972-8.5799-0.09521-0.38411-0.26746-0.66536-0.38277-0.625-0.11531 0.0404-1.255 1.6102-2.5327 3.4886-7.4075 10.89-15.071 17.041-22.406 17.981-6.9236 0.88792-12.195-2.4849-14.296-9.1465-0.78559-2.4915-0.95511-7.1906-0.38457-10.66 1.6763-10.193 9.3116-23.214 19.626-33.467 6.7036-6.664 12.067-9.6252 15.885-8.7708 2.3964 0.53628 4.1135 2.9846 4.322 6.1624 0.2721 4.1476-0.83338 8.4214-3.6821 14.235-4.3273 8.8311-11.417 17.625-14.21 17.625-0.83916 0-2.2031-0.69023-3.0628-1.55-2.0286-2.0286-1.3066-4.7033 2.8382-10.514 0.98906-1.3865 2.3541-3.1318 3.0335-3.8784 1.0725-1.1786 1.2737-1.3048 1.5276-0.95765 0.16078 0.21988 0.42307 0.39978 0.58287 0.39978 0.7312 0 4.7916-7.2488 6.1002-10.89 0.94784-2.6376 1.0563-3.8126 0.44277-4.7972-0.98388-1.579-2.3876-0.98634-5.974 2.5223-3.9058 3.8212-8.0813 9.3121-11.408 15.002-7.9398 13.58-9.0348 26.788-2.5067 30.235 1.4542 0.76801 4.1949 0.70886 6.4009-0.13813 5.6515-2.1698 12.074-7.9949 18.976-17.212 1.2757-1.7035 2.5168-3.266 2.7581-3.4723 0.24123-0.20625 0.93844-1.1625 1.5494-2.125 3.313-5.2196 8.4056-10.075 13.918-13.27 1.4824-0.85918 2.3748-1.2184 3.0266-1.2184 1.083 0 2.4972 0.87465 3.1206 1.9299 0.41068 0.69522 0.40302 0.74183-0.28876 1.7567-0.39085 0.57338-0.79358 1.1727-0.89496 1.3319-0.10778 0.16921 0.3334 0.93702 1.0625 1.8491 0.68575 0.85786 1.2468 1.7988 1.2468 2.0909s-0.34133 1.7122-0.75851 3.1556c-1.5419 5.3349-1.8902 8.319-1.1023 9.4438 0.42814 0.61126 1.5865 0.74261 2.7264 0.30919 1.571-0.59729 4.3387-3.9123 5.9533-7.1305 0.87064-1.7354 1.7471-2.5286 3.3709-3.0507l1.3915-0.44741 0.83361-3.125c0.45848-1.7188 1.6171-7.0063 2.5748-11.75 0.95764-4.7438 2.142-10.088 2.632-11.875 1.3973-5.0975 3.4532-8.7143 4.6848-8.2416 0.22378 0.08587 0.62994 0.63068 0.90257 1.2107 0.81417 1.7321 1.124 3.9211 0.97038 6.8553-0.16976 3.2415-0.9932 6.3546-4.0726 15.397-2.3797 6.988-4.1069 12.684-4.1069 13.545 0 0.39553 0.39526 0.85191 1.3125 1.5154 0.72188 0.5222 1.94 1.488 2.7069 2.1463 0.76692 0.65826 1.4982 1.1931 1.625 1.1886 0.2569-9e-3 4.9061-5.7819 5.9623-7.4032 0.57816-0.88749 0.70482-1.4263 0.88154-3.75 0.23182-3.0482 0.781-4.7672 2.6638-8.3381 2.3504-4.4579 4.9631-7.1559 8.723-9.008 2.3837-1.1742 5.0208-1.6901 6.067-1.187 2.3218 1.1167 2.3748 4.5716 0.13342 8.6945-1.6242 2.9877-5.1393 6.8363-8.4504 9.2523-3.23 2.3567-3.3813 2.6968-2.0625 4.636 1.5332 2.2544 3.5943 2.6877 6.4218 1.3501 1.9307-0.91337 5.6295-4.4744 7.234-6.9646 0.9041-1.4031 1.0318-1.7793 1.0318-3.0405 0-5.7257 3.8108-13.407 8.4613-17.056 2.8036-2.1997 5.8861-3.3347 8.4739-3.1201 1.6864 0.13985 2.1748 0.62285 2.4081 2.3817 0.33765 2.5453-0.8703 5.8729-3.2919 9.0683-1.6268 2.1466-5.3928 5.702-7.6609 7.2325-1.0044 0.67774-1.8846 1.3845-1.956 1.5706-0.36796 0.95888 1.141 3.3167 2.6156 4.0871 1.1132 0.58156 3.1655 0.44551 4.6824-0.31042 2.1806-1.0867 6.6386-5.6621 7.9075-8.1159 0.20805-0.40233 0.7582-2.4448 1.2226-4.5387 1.8593-8.3844 3.6685-11.182 7.2309-11.182 0.58351 0 1.2688 0.15197 1.5228 0.33771 0.41676 0.30474 0.43233 0.45494 0.15952 1.5384-0.16628 0.66036-0.98619 2.9448-1.822 5.0765-0.83583 2.1317-1.6723 4.4488-1.8588 5.1491-0.39302 1.4759-0.45103 3.1483-0.1092 3.1483 0.1297 0 1.101-1.6594 2.1585-3.6875 5.2636-10.095 9.5774-16.509 11.916-17.719 0.70486-0.3645 0.80216-0.35802 1.411 0.09384 0.97376 0.72268 2.0722 2.6471 2.2057 3.8643 0.0855 0.77912-0.0664 1.5521-0.55447 2.8229-1.6935 4.4092-2.6539 7.4639-2.9175 9.2791-0.49535 3.4118 0.12076 4.7388 1.8623 4.0112 1.0751-0.44919 2.3716-2.0228 5.0281-6.1028 1.1862-1.8219 2.2552-3.3125 2.3754-3.3125s0.33082 0.44205 0.46796 0.98233c0.30639 1.2071-0.0376 2.1299-2.6668 7.1543-2.1774 4.1611-4.6698 8.0025-5.8837 9.0683-1.9636 1.7241-4.2822 1.6271-5.6314-0.23549-1.6357-2.2581-1.6556-6.5889-0.0568-12.344 0.53475-1.925 0.92434-3.5561 0.86576-3.6246-0.32084-0.37533-2.7085 4.2735-5.9366 11.559-2.8673 6.4709-3.5065 7.542-4.5616 7.6439-0.67429 0.0652-0.98074-0.10252-1.8742-1.0256-0.58749-0.60695-1.5126-2.0201-2.0557-3.1404-0.54316-1.1203-1.0535-2.0369-1.1341-2.0369s-0.81053 1.0881-1.622 2.4179c-2.9215 4.7874-5.8429 7.8784-8.8442 9.3577-2.2762 1.1218-5.0458 1.3072-6.9959 0.46829-1.5407-0.66278-3.0024-2.2104-3.9202-4.1504-0.34956-0.73893-0.71665-1.3416-0.81575-1.3393-0.0991 2e-3 -1.0197 1.3242-2.0457 2.9375-2.4069 3.7845-5.3497 6.7882-8.0095 8.1752-1.6195 0.84457-2.1482 0.99222-3.88 1.0837-1.6719 0.0884-2.1937 0.0173-3.141-0.42807-1.5096-0.7096-3.0312-2.3006-4.0831-4.2694l-0.85911-1.6079-0.45591 0.82638c-0.7235 1.3114-3.0788 4.8052-4.0069 5.9438l-0.84816 1.0405 0.42124 2.0789c1.3858 6.8394-1.6482 16.956-6.7067 22.364-1.556 1.6634-2.5455 2.3511-3.383 2.3511-0.25708 0-0.94159-0.40588-1.5211-0.90195zm4.874-7.6836c1.06-1.5388 1.7174-3.6707 2.0874-6.7698 0.31013-2.5975 0.22915-3.9174-0.41918-6.8322-0.35111-1.5785-0.47414-1.8125-0.95309-1.8125-0.30246 0-1.3917-0.0712-2.4206-0.15813l-1.8706-0.15812-0.28732 1.7398c-0.51339 3.1087-0.62042 5.879-0.31561 8.1684 0.44763 3.3621 2.0796 7.2809 2.9602 7.1084 0.21166-0.0414 0.76009-0.62012 1.2187-1.2859zm-32.775-13.037c2.5564-2.5564 7.1431-10.608 9.6135-16.875 0.66459-1.6861 0.66241-2.1065-0.0091-1.7471-1.5618 0.83582-8.683 7.5712-10.772 10.188-2.5285 3.1677-3.1405 6.6046-1.5958 8.9621 0.60862 0.92887 1.4714 0.76402 2.7634-0.52801zm55.302-26.878c2.8602-3.2273 4.0936-6.3145 2.7994-7.0071-1.8273-0.97793-7.0721 5.7215-8.3649 10.685-0.67478 2.5907-0.56041 2.6212 1.6552 0.44147 1.1148-1.0968 2.8745-2.9504 3.9103-4.1191zm18.505-2.4375c5.3448-5.3057 7.6514-9.1016 6.4833-10.669-0.31837-0.42726-0.44514-0.44601-1.1214-0.1659-0.99875 0.4137-3.5565 3.0198-4.8132 4.9042-1.0764 1.6141-2.9914 6.2586-2.9914 7.2553 0 0.33722 0.11046 0.61312 0.24546 0.61312 0.13499 0 1.1238-0.87188 2.1972-1.9375z"/>
   <path transform="matrix(.26458 0 0 .26458 0 244.08)" d="m176.43 85.721c-0.35128-3.3609-3.4698-12.203-6.42-18.203-3.5523-7.2244-8.0956-13.512-14.105-19.522-6.0731-6.0731-11.733-10.159-19.022-13.733-7.8282-3.8377-15.528-6.2164-24-7.4147-3.4172-0.48332-14.958-0.40093-18.875 0.13475-13.785 1.8852-26.685 7.5601-37.5 16.497-2.99 2.4708-8.0157 7.5752-10.433 10.597-5.6172 7.0206-9.5471 14.298-12.814 23.728-0.57865 1.6704-1.2472 3.3579-1.4857 3.7501-0.45874 0.75434-3.9509 3.7373-4.1464 3.5418-0.06315-0.06315 0.21666-1.4723 0.62182-3.1315 4.6409-19.005 16.389-35.662 32.758-46.445 10.161-6.6933 20.555-10.566 33-12.295 4.4084-0.61251 14.858-0.60626 19.375 0.01158 12.62 1.7261 23.285 5.7147 33.5 12.53 4.5786 3.0545 7.0527 5.0552 10.966 8.8679 7.7461 7.5464 12.648 14.64 17.131 24.79 1.7227 3.9006 3.4042 8.6206 3.889 10.917l0.33237 1.5741-0.97191 1.8447c-0.53455 1.0146-0.97191 2.0004-0.97191 2.1906s-0.15102 0.55241-0.3356 0.80484c-0.29844 0.40814-0.3529 0.29346-0.49183-1.0358z"/>
   <path transform="matrix(.26458 0 0 .26458 0 244.08)" d="m84.043 143.99c-1.3386-1.1458-3.3737-5.2065-3.939-7.8597-0.5006-2.3493-0.33368-10.291 0.28086-13.363 0.80292-4.0141 0.8181-3.8527-0.50011-5.3188-0.64589-0.71839-1.2483-1.3041-1.3387-1.3016-0.09038 3e-3 -0.9431 1.5127-1.8949 3.356-1.9399 3.7567-4.0578 6.8547-5.4471 7.9677-1.7666 1.4154-4.4463 1.0586-5.4952-0.73158-0.56827-0.96991-0.94796-3.475-0.95026-6.2695-1e-3 -1.2638-0.08997-2.3522-0.19762-2.4187-0.10766-0.0665-0.92328 1.1816-1.8125 2.7736-3.1571 5.6523-5.5227 8.9332-6.9873 9.6905-0.57389 0.29677-0.78425 0.28191-1.6438-0.11614-2.6831-1.2425-5.9997-5.1934-6.8786-8.194-0.17117-0.58438-0.37778-1.0571-0.45914-1.0504-0.08136 7e-3 -1.245 1.6098-2.5858 3.5625-5.5632 8.1018-10.544 12.992-16.219 15.923-2.707 1.3981-4.283 1.8759-6.9849 2.1178-6.3719 0.57036-11.392-2.7862-13.386-8.9507-0.89317-2.761-1.101-7.4637-0.48856-11.057 1.7116-10.041 9.3328-23.06 19.385-33.115 6.8727-6.8745 12.254-9.8825 16.128-9.0155 1.571 0.35157 2.5863 1.2468 3.5699 3.1476 1.303 2.5181 0.95326 7.7308-0.84425 12.583-2.956 7.9789-10.299 18.845-14.584 21.582-1.4285 0.91247-2.3053 0.89572-3.8147-0.0729-1.9672-1.2624-2.4376-2.6428-1.7061-5.0066 0.7342-2.3724 3.979-7.3326 6.7231-10.277 1.0379-1.1137 1.1397-1.1653 1.5566-0.78801 0.24535 0.22204 0.5613 0.33251 0.70211 0.24548 0.84396-0.52159 4.7621-7.7509 5.8348-10.766 0.89975-2.5287 1.0211-3.4484 0.59099-4.4779-0.47776-1.1434-1.385-1.4028-2.6103-0.74613-2.177 1.1666-7.1602 6.5289-10.828 11.652-8.7718 12.251-12.724 25.131-9.9706 32.49 1.344 3.5922 4.1872 5.1453 7.9739 4.3558 5.9168-1.2337 13.235-7.5732 21.529-18.649 0.87514-1.1688 1.7905-2.3201 2.0342-2.5586 0.24366-0.23849 0.93686-1.1947 1.5405-2.125 3.584-5.5237 9.3289-10.877 14.6-13.604 1.488-0.77 2.1128-0.96822 2.6887-0.85304 1.0094 0.20189 2.251 1.0829 2.7741 1.9684 0.42121 0.71305 0.41534 0.74364-0.35127 1.8312-0.4288 0.60834-0.77963 1.2519-0.77963 1.4301s0.50625 0.97594 1.125 1.7728 1.125 1.669 1.125 1.9382-0.45938 2.14-1.0208 4.1574c-0.66136 2.3763-1.0691 4.4268-1.1578 5.8227-0.12497 1.9661-0.09032 2.2013 0.39584 2.6875 1.8348 1.8348 5.8068-1.3274 8.5967-6.8441 0.88078-1.7416 1.7554-2.53 3.3843-3.0507l1.3999-0.44741 0.82486-3.25c0.45367-1.7875 1.6099-7.075 2.5694-11.75 0.9595-4.675 2.1402-9.9625 2.6239-11.75 1.3722-5.0717 3.4507-8.7174 4.6972-8.239 0.2275 0.0873 0.63609 0.6268 0.90798 1.1989 1.3243 2.7865 1.339 7.5669 0.03813 12.415-0.42426 1.5812-1.7651 5.8-2.9796 9.375-2.9191 8.5926-4.364 13.506-4.1835 14.225 0.07974 0.31771 0.57636 0.86313 1.1036 1.212 0.52724 0.34891 1.729 1.288 2.6707 2.0868l1.7121 1.4524 1.101-1.2383c0.60552-0.68105 2.0432-2.4758 3.1949-3.9883 2.2541-2.9603 2.6042-3.8246 2.6153-6.4559 8e-3 -1.8255 0.8863-4.4961 2.5195-7.6583 2.4026-4.6517 5-7.3686 8.8616-9.2691 2.17-1.068 4.9143-1.6569 5.9172-1.2697 3.1102 1.2008 2.3564 6.5557-1.6555 11.761-1.4265 1.8506-4.7884 5.0429-7.2617 6.8952-2.3309 1.7457-2.5129 2.2227-1.4488 3.7981 1.0633 1.5744 1.9413 2.1471 3.4885 2.2754 2.0819 0.17264 4.1135-0.93824 6.9635-3.8077 1.2393-1.2477 2.69-2.912 3.2238-3.6984 0.9113-1.3425 0.98368-1.5871 1.1836-4 0.34254-4.1333 1.5245-7.418 4.08-11.339 3.3922-5.2041 8.4948-8.408 12.819-8.0494 1.6864 0.13985 2.1748 0.62285 2.4081 2.3817 0.338 2.548-0.87327 5.8812-3.2954 9.0683-1.6628 2.1879-5.249 5.5896-7.6104 7.2187-1.7398 1.2003-1.9375 1.4189-1.9375 2.1429 0 0.97027 1.1637 2.6772 2.3201 3.4031 1.0952 0.68754 3.345 0.56314 5.0193-0.27754 2.1431-1.076 6.5544-5.6133 7.8007-8.0233 0.20805-0.40233 0.75798-2.4448 1.222-4.5387 0.46408-2.094 1.0337-4.3697 1.2659-5.0572 1.4054-4.1615 3.2905-6.125 5.8804-6.125 1.2843 0 1.9916 0.36699 1.9916 1.0334 0 0.28367-0.63014 2.1641-1.4003 4.1787-0.77018 2.0146-1.7264 4.6473-2.125 5.8505-0.70223 2.1198-0.95233 4.1875-0.5065 4.1875 0.11999 0 1.206-1.8844 2.4133-4.1875 5.124-9.7747 9.363-16.021 11.689-17.224 0.69255-0.35813 0.79486-0.3509 1.4011 0.09899 0.97411 0.72294 2.0717 2.6464 2.2099 3.8728 0.097 0.86026-0.0935 1.6421-0.9315 3.8229-2.135 5.5563-3.0113 9.2674-2.647 11.209 0.18696 0.99656 0.83554 1.4419 1.7512 1.2025 0.88357-0.23106 2.6436-2.3118 5.0496-5.9697 1.2935-1.9666 2.4443-3.5756 2.5573-3.5756 0.11304 0 0.32894 0.40215 0.47978 0.89366 0.35849 1.1681 0.0913 1.9102-2.4564 6.8233-4.3326 8.3551-6.6846 11.057-9.318 10.703-1.3234-0.17751-2.1546-0.83792-2.9144-2.3157-0.58308-1.134-0.62466-1.4531-0.59923-4.5992 0.0249-3.088 0.10609-3.6586 0.9375-6.5931 1.4175-5.003 1.1817-5.0844-1.1978-0.41331-0.73569 1.4442-2.2072 4.5946-3.2701 7.0008-3.4252 7.7543-4.011 8.75-5.1483 8.75-1.0645 0-2.6238-1.7125-3.8362-4.2131-0.54316-1.1203-1.0506-2.0369-1.1276-2.0369-0.0771 0-0.68316 0.90618-1.3469 2.0137-2.8923 4.8263-6.1126 8.2768-9.0976 9.7479-2.3058 1.1364-5.0634 1.3257-7.0242 0.48221-1.5017-0.64601-2.8855-2.0863-3.9404-4.1009-0.39025-0.74536-0.78896-1.3061-0.88603-1.2461-0.0971 0.06-1.0427 1.4296-2.1013 3.0436-2.4476 3.7317-5.2504 6.5557-7.8634 7.9231-1.6324 0.85424-2.1397 0.99518-3.9206 1.0893-1.72 0.0909-2.2207 0.0233-3.1455-0.42437-1.5056-0.72885-2.8859-2.176-3.9649-4.1568l-0.90609-1.6634-1.1871 1.9584c-0.65288 1.0771-1.853 2.8435-2.6669 3.9252l-1.4799 1.9668 0.42006 1.8881c0.58489 2.629 0.37128 7.0518-0.4999 10.351-1.3484 5.1062-3.717 9.5566-6.6606 12.515-2.2995 2.3109-2.8206 2.4321-4.4522 1.0356zm4.522-7.1606c1.5946-2.0978 2.4906-5.4529 2.5202-9.4375 0.0181-2.4337-0.5787-6.0661-1.0439-6.3536-0.08823-0.0545-1.185-0.1793-2.4374-0.27727l-2.277-0.17812-0.34233 2.092c-0.43428 2.6539-0.4304 7.6812 0.0073 9.4491 0.38754 1.5653 1.3669 4.0599 1.9332 4.9242 0.5234 0.79881 0.90499 0.7479 1.6398-0.21876zm-32.442-13.594c0.63592-0.63592 1.9458-2.3516 2.9109-3.8125 2.7264-4.1273 7.4679-13.92 7.171-14.81-0.24189-0.72567-10.212 8.5364-11.872 11.029-1.7836 2.678-2.2567 5.9821-1.1186 7.8125 0.79853 1.2843 1.4552 1.235 2.9089-0.21873zm52.544-23.906c4.2591-4.37 5.6558-6.3242 5.9832-8.3716 0.20168-1.2613-0.33824-1.9196-1.2805-1.5613-2.2417 0.85231-5.8164 5.7035-7.1865 9.7529-0.54851 1.6212-0.77522 2.9925-0.4947 2.9925 0.13058 0 1.4709-1.2656 2.9785-2.8125zm21.938-6.1373c3.4443-3.4844 5.2793-5.9259 5.8-7.717 0.41299-1.4206 0.23073-2.5833-0.40494-2.5833-1.4704 0-5.5237 4.5071-6.8688 7.6378-0.70186 1.6335-1.6241 4.4194-1.6241 4.906 0 0.25092 0.0966 0.45621 0.21463 0.45621 0.11805 0 1.4155-1.2149 2.8833-2.6998z"/>
   <path transform="matrix(.26458 0 0 .26458 0 244.08)" d="m83.999 143.98c-1.3209-1.1934-3.3676-5.3074-3.8996-7.8384-0.54995-2.6166-0.32653-10.572 0.39669-14.125 0.27987-1.375 0.50922-2.689 0.50968-2.9201 5e-4 -0.23104-0.54568-1.0144-1.2136-1.7409l-1.2145-1.3208-0.72303 1.3024c-0.39766 0.71634-1.3154 2.3997-2.0395 3.7408-1.5996 2.9628-3.4467 5.512-4.6699 6.445-1.1927 0.90969-2.9121 1.088-4.1386 0.4292-1.5247-0.81897-2.0168-2.2123-2.1832-6.1817-0.07832-1.868-0.22814-3.4493-0.33294-3.5141-0.1048-0.0648-0.94646 1.2047-1.8704 2.8211-3.3154 5.8003-5.4215 8.6932-6.8768 9.4458-0.61194 0.31644-0.79289 0.2912-1.9129-0.26691-2.3942-1.1931-5.5657-4.956-6.4689-7.6753-0.21733-0.65431-0.49016-1.1897-0.60628-1.1897-0.11612 0-1.0803 1.2656-2.1426 2.8125-5.886 8.5709-11.167 13.739-17.025 16.662-2.4025 1.1986-4.138 1.7002-6.5811 1.9021-4.1828 0.34581-7.4804-0.79815-10.171-3.5284-3.0515-3.0964-4.2403-6.9385-4.0103-12.961 0.20644-5.4042 1.4034-9.4992 4.7169-16.138 5.6097-11.239 16.491-23.799 24.238-27.977 4.1975-2.2641 7.6635-2.2704 9.4238-0.0172 1.743 2.2311 2.1931 5.1655 1.4501 9.4522-1.2201 7.0393-7.8605 18.856-13.805 24.567-2.8236 2.7125-3.8506 3.0034-5.9184 1.6765-1.5213-0.97619-2.2847-2.4336-2.0364-3.8879 0.38709-2.2676 3.5555-7.4307 6.7592-11.014 1.3753-1.5384 1.4209-1.5654 1.9052-1.1272 0.48012 0.4345 0.51236 0.42891 1.0007-0.17386 1.8746-2.3139 5.422-9.5278 6.0795-12.363 0.33159-1.4298 0.33334-1.7342 0.01437-2.4976-0.84683-2.0268-2.4561-1.3548-6.5267 2.7253-8.3159 8.3354-15.146 20.289-17.149 30.013-0.6895 3.3476-0.58187 8.5476 0.21892 10.577 2.7145 6.8802 9.9225 6.0228 19.141-2.2768 3.3844-3.0471 9.5577-10.424 13.925-16.641 4.2829-6.0959 9.4417-10.871 14.663-13.573 1.4913-0.77173 2.1121-0.96835 2.6915-0.85248 1.0227 0.20455 2.504 1.2672 2.8621 2.0533 0.25742 0.56496 0.2001 0.79044-0.46399 1.8253-0.41673 0.64941-0.75469 1.2834-0.75102 1.4089 0.0037 0.12546 0.50991 0.89459 1.125 1.7092 0.61508 0.81459 1.1176 1.7146 1.1167 2-1e-3 0.28542-0.34191 1.7377-0.75781 3.2272-1.4698 5.2641-1.8137 7.8357-1.2031 8.9957 0.38712 0.73548 0.69769 0.91272 1.6072 0.91724 1.8253 9e-3 4.4877-2.6626 6.8941-6.9184 1.4024-2.4801 2.0019-3.0332 3.8917-3.5912 0.84043-0.2481 1.1057-0.46949 1.302-1.0866 0.6089-1.9146 1.8468-7.3302 3.1488-13.775 1.5229-7.5386 3.0088-13.673 3.8456-15.875 1.1518-3.0314 2.665-4.9677 3.6015-4.6083 0.56218 0.21573 1.3341 1.9556 1.6894 3.8076 0.44093 2.2986 0.16534 6.3944-0.63421 9.4257-0.36268 1.375-1.9347 6.325-3.4933 11-1.5587 4.675-3.0926 9.4995-3.4088 10.721l-0.57488 2.2211 0.88075 0.77886c2.4967 2.2078 4.7518 3.9092 4.9881 3.7632 0.44693-0.27622 5.1506-6.2689 5.8288-7.4262 0.50638-0.86408 0.684-1.6219 0.86661-3.6975 0.24949-2.8358 0.77386-4.5034 2.4717-7.8607 2.9106-5.7553 7.2247-9.5091 12.096-10.525 2.1532-0.44895 2.912-0.31576 3.8643 0.67828 0.66878 0.69805 0.72263 0.89745 0.7224 2.6754-2.5e-4 2.1091-0.56231 3.7898-2.1611 6.4624-1.195 1.9976-5.3594 6.2784-8.1103 8.337-2.659 1.9898-2.9452 2.5094-2.1189 3.8464 1.7292 2.798 4.2124 3.3463 7.2667 1.6045 1.6549-0.9437 5.25-4.5152 6.6025-6.5591 0.92084-1.3916 0.99171-1.6352 1.2001-4.1246 0.8536-10.198 9.3252-19.84 16.881-19.214 1.6823 0.13951 2.1942 0.64142 2.4263 2.3789 0.32859 2.4598-0.92211 5.9448-3.2235 8.9823-1.5618 2.0613-4.6314 5.0259-7.263 7.0144-1.4172 1.071-2.2786 1.8999-2.3274 2.2396-0.11535 0.80412 0.82725 2.4569 1.8431 3.2317 0.64437 0.49149 1.2774 0.71459 2.2582 0.79593 2.0955 0.17377 4.0947-0.91989 6.9634-3.8093 3.8594-3.8873 3.9113-3.9938 5.877-12.076 1.1264-4.6311 2.6826-7.3584 4.6902-8.2199 1.0396-0.44606 2.8416-0.4427 3.4558 0.0064 0.43972 0.32153 0.45414 0.45163 0.16842 1.5199-0.17186 0.64256-0.9941 2.9306-1.8272 5.0845-1.6806 4.345-2.2306 6.2132-2.2182 7.534l8e-3 0.88498 0.47701-0.57208c0.26236-0.31464 1.403-2.3396 2.5347-4.5 4.7211-9.0121 9.0298-15.294 11.292-16.464 0.69255-0.35813 0.79486-0.3509 1.4011 0.09899 0.97243 0.72169 2.0718 2.646 2.2077 3.8643 0.096 0.86079-0.13169 1.7513-1.1518 4.5038-2.3068 6.2243-3.0108 9.7935-2.1812 11.06 0.28253 0.4312 0.64179 0.63455 1.1211 0.63455 1.0286 0 2.4009-1.5015 5.3124-5.8125 1.3698-2.0281 2.5796-3.6875 2.6887-3.6875 0.35757 0 0.74768 1.7484 0.54609 2.4475-0.31128 1.0795-3.37 7.0538-5.1142 9.9893-2.7165 4.5716-4.624 6.2666-6.7338 5.9836-3.8027-0.51005-4.7197-5.9729-2.3908-14.243 0.41783-1.4838 0.7153-2.831 0.66104-2.9937-0.14471-0.43412-2.1313 3.3338-4.3188 8.1916-2.8343 6.2939-4.28 9.3002-4.8724 10.132-1.2145 1.7056-3.1297 0.45261-5.003-3.2733-0.54862-1.0911-1.1061-1.9839-1.2389-1.9839-0.1328 0-0.4321 0.30938-0.66511 0.6875-5.0229 8.151-8.7712 11.473-13.272 11.762-3.3796 0.21689-5.3087-0.87156-7.1624-4.0411-0.53334-0.91196-1.052-1.6581-1.1526-1.6581s-1.0135 1.2656-2.0286 2.8125c-2.4222 3.6909-5.4278 6.7274-7.9726 8.0545-1.6296 0.84983-2.1427 0.99193-3.9206 1.0859-1.7148 0.0906-2.2218 0.0228-3.135-0.41929-1.483-0.71789-2.9754-2.2536-3.9292-4.043-0.43695-0.8198-0.87408-1.4906-0.97139-1.4906-0.0973 0-0.55765 0.64687-1.023 1.4375-0.46532 0.79062-1.5372 2.3938-2.382 3.5625-0.84481 1.1688-1.616 2.2559-1.7138 2.4159-0.09777 0.16 0.0037 1.06 0.22548 2 0.58597 2.4835 0.35532 7.1457-0.51745 10.459-1.3384 5.0813-3.5701 9.2874-6.5314 12.31-2.4249 2.4749-2.99 2.6164-4.6092 1.1536zm4.3803-7.0259c1.6299-1.7429 2.6273-5.4215 2.6273-9.6901 0-2.4402-0.54363-5.9718-0.95691-6.2164-0.09245-0.0547-1.1933-0.17918-2.4463-0.27659l-2.2782-0.17711-0.33158 2.0863c-0.46556 2.9293-0.41292 7.6945 0.10729 9.7113 0.4859 1.8838 2.014 5.25 2.3833 5.25 0.13871 0 0.54153-0.30938 0.89514-0.6875zm-32.586-13.5c1.3134-1.1857 2.4656-2.7491 4.4678-6.0625 2.4546-4.062 6.2744-12.304 5.8834-12.695-0.39628-0.39628-7.4788 5.8955-10.258 9.113-2.6979 3.123-3.8016 6.0882-3.1571 8.4816 0.29455 1.0939 1.0905 2.1004 1.661 2.1004 0.2005 0 0.83186-0.42188 1.403-0.9375zm53.004-24.268c3.4825-3.6121 5.0344-5.6409 5.5865-7.3028 0.57341-1.7264 0.36024-2.4915-0.69413-2.4915-0.6795 0-1.1027 0.3073-2.6827 1.948-2.1404 2.2226-3.8006 4.9575-4.8081 7.9207-0.71403 2.1-0.84201 2.8813-0.47196 2.8813 0.12147 0 1.5032-1.3301 3.0705-2.9557zm21.996-6.2318c4.518-4.6242 6.3775-7.6881 5.7182-9.422-0.28321-0.74491-0.65421-0.80086-1.5128-0.22816-1.8395 1.2271-4.2246 4.067-5.4275 6.4627-1.4465 2.8808-2.43 6.125-1.8568 6.125 0.11485 0 1.5003-1.3219 3.0788-2.9375z"/>
   <path transform="matrix(.26458 0 0 .26458 0 244.08)" d="m26.315 104.76c0.08069-1.3527 0.24821-1.7486 1.6662-3.9375 0.86707-1.3385 1.6212-2.4336 1.6758-2.4336 0.05461 0 0.09929 0.66558 0.09929 1.4791 0 1.3618-0.09867 1.6244-1.2445 3.3125-0.68448 1.0084-1.479 2.1147-1.7655 2.4584l-0.52098 0.625z"/>
   <path transform="matrix(.26458 0 0 .26458 0 244.08)" d="m26.315 104.76c0.08069-1.3527 0.24821-1.7486 1.6662-3.9375 0.86707-1.3385 1.6212-2.4336 1.6758-2.4336 0.05461 0 0.09929 0.66558 0.09929 1.4791 0 1.3618-0.09867 1.6244-1.2445 3.3125-0.68448 1.0084-1.479 2.1147-1.7655 2.4584l-0.52098 0.625z"/>
   <path transform="matrix(.26458 0 0 .26458 0 244.08)" d="m31.14 128.08c-0.34234-0.81933-2.3834-6.6641-2.3834-6.8251 0-0.0472 0.42188-0.16227 0.9375-0.25562 0.51562-0.0934 1.2618-0.33407 1.6582-0.53491 0.90426-0.45819 0.87921-0.49533 2.0621 3.057 0.50364 1.5125 0.95879 2.868 1.0114 3.0122 0.0986 0.27013-2.3065 2.3628-2.7156 2.3628-0.12601 0-0.3826-0.36738-0.57021-0.81639z"/>
   <path transform="matrix(.26458 0 0 .26458 0 244.08)" d="m99.257 178.22c-4.2463-0.24227-9.9885-1.18-14.91-2.435-14.281-3.6415-28.288-12.097-37.986-22.93-3.6745-4.1047-7.2195-8.9449-10.044-13.714l-0.51827-0.875 1.3906-1.2031 1.3906-1.2031 1.0134 1.5781c2.7405 4.2675 4.1413 6.2962 6.0055 8.6972 2.5453 3.2783 9.0202 9.837 12.158 12.316 9.8604 7.7883 21.654 13.007 34.476 15.257 2.8357 0.49753 3.9937 0.55236 11.649 0.55152 9.4112-1e-3 10.474-0.11738 18.009-1.9717 13.012-3.202 24.238-9.5804 34.138-19.397 8.6752-8.6019 14.169-17.628 18.221-29.934 2.264-6.8769 3.1614-12.571 3.4259-21.738l0.16004-5.547 1.0231 0.82835c0.56272 0.45559 1.3888 1.014 1.8356 1.2409l0.8125 0.41255-3e-3 2.8061c-0.0114 12.437-3.5683 26.115-9.701 37.306-4.3747 7.9828-11.626 16.6-19.132 22.737-14.593 11.931-34.365 18.304-53.414 17.217z"/>
   <path transform="matrix(.26458 0 0 .26458 0 244.08)" d="m111.26 81.063c0-0.18217 0.26331-1.1103 0.58513-2.0625 0.32181-0.95221 0.84095-2.7731 1.1536-4.0465 0.31269-1.2734 0.78575-2.5914 1.0512-2.9289 0.78985-1.0041 3.3308-1.5084 3.633-0.72098 0.46342 1.2076-2.9192 8.5214-4.4038 9.5219-0.92946 0.62636-2.0192 0.75424-2.0192 0.23694z"/>
   <path transform="matrix(.26458 0 0 .26458 0 244.08)" d="m183.27 81.47c-1.4609-1.2505-2.2554-3.0118-2.2585-5.0067-5e-3 -2.9516 1.8562-6.9075 7.1645-15.231 4.0054-6.2807 4.7885-8.3497 3.7563-9.9249-0.88087-1.3444-1.4542-1.5197-3.8722-1.1841-2.7784 0.38562-5.1007 1.194-7.6508 2.6632-2.5508 1.4696-3.7019 2.3275-3.5867 2.673 0.0495 0.14853 0.81484 0.50389 1.7007 0.78969s1.599 0.63213 1.5846 0.76963c-0.0344 0.32981-1.395 0.55721-4.6026 0.76925-2.3486 0.15526-2.6682 0.12612-2.9999-0.27353-0.5612-0.6762-0.64686-4.0439-0.14095-5.5413 0.90444-2.677 3.4236-5.0843 7.2752-6.9522 4.4406-2.1535 8.2562-2.7 10.744-1.539 1.3894 0.64838 2.9837 2.2626 3.5329 3.5769 1.0028 2.4002 0.9179 8.164-0.17259 11.71-0.71701 2.3314-3.0291 8.084-5.2085 12.959-2.4562 5.494-2.8311 6.7812-2.4728 8.4895 0.36492 1.7398 0.18906 2.1767-0.87613 2.1767-0.60456 0-1.1383-0.25716-1.9169-0.9236z"/>
   <path transform="matrix(.26458 0 0 .26458 0 244.08)" d="m180.53 95.128c-1.9881-1.4402-2.4569-3.6899-1.5268-7.3264 0.62952-2.4614 1.2001-3.6581 1.7441-3.6581 0.58422 0 2.612 1.3717 3.384 2.2891 0.59013 0.70133 0.63042 0.92465 0.63042 3.4943 0 3.0509-0.30642 4.6645-1.0341 5.4456-0.71534 0.76783-1.928 0.6751-3.1975-0.24448z"/>
  </g>
 </g>
</svg>
